# xmcd CD database file
#
# Track frame offsets:
#	150
#	13767
#	25664
#	37636
#	54195
#	68921
#	80905
#	93115
#	110456
#	119790
#	130434
#	147208
#
# Disc length: 2189 seconds
#
# Revision: 1
# Processed by: cddbd v1.5.2PL0 Copyright (c) Steve Scherf et al.
# Submitted via: CDex 1.70beta2
#
DISCID=9c088b0c
DTITLE=Lucky Fonz III - A family like yours
DYEAR=2009
DGENRE=Jazz
TTITLE0=Summer day
TTITLE1=In your underwear
TTITLE2=My daughter
TTITLE3=The world wants you to stay
TTITLE4=Every ghost back to blanket
TTITLE5=Station wagon
TTITLE6=Leave your body
TTITLE7=The word on the street
TTITLE8=The mermaid
TTITLE9=Haul away its heart
TTITLE10=Asylum
TTITLE11=We are still young
EXTD=YEAR: 2009
EXTT0=
EXTT1=
EXTT2=
EXTT3=
EXTT4=
EXTT5=
EXTT6=
EXTT7=
EXTT8=
EXTT9=
EXTT10=
EXTT11=
PLAYORDER=
